<svg viewBox="0 0 56.693 56.693" xml:space="preserve" xmlns="http://www.w3.org/2000/svg"><path d="M33.886 32.544h-9.385c-.881 0-1.594.707-1.594 1.584a1.6 1.6 0 0 0 1.594 1.588h9.385c.877 0 1.586-.727 1.586-1.588 0-.877-.709-1.584-1.586-1.584zM24.501 26.19h4.619c.881 0 1.596-.725 1.596-1.596 0-.873-.715-1.592-1.596-1.592h-4.619c-.881 0-1.594.719-1.594 1.592a1.6 1.6 0 0 0 1.594 1.596z" fill="#ffffff" class="fill-000000"></path><path d="M28.347 5.157c-13.6 0-24.625 11.023-24.625 24.624 0 13.6 11.024 24.625 24.625 24.625 13.602 0 24.625-11.025 24.625-24.625 0-13.601-11.024-24.624-24.625-24.624zm13.949 29.094c-.025 4.574-3.748 8.32-8.33 8.32h-9.57c-4.583 0-8.328-3.746-8.328-8.32V24.53c0-4.584 3.745-8.338 8.328-8.338h5.824c2.152.256 5.281 2.098 6.436 4.549.316.686.484.793.746 2.831.143 1.049.215 1.824.684 2.254.658.6 3.109.197 3.592.574l.373.291.221.459.076.367-.052 6.734z" fill="#ffffff" class="fill-000000"></path></svg>