<?xml version="1.0"?>
<svg xmlns="http://www.w3.org/2000/svg" xmlns:xlink="http://www.w3.org/1999/xlink" xmlns:svgjs="http://svgjs.com/svgjs" version="1.1" width="512" height="512" x="0" y="0" viewBox="0 0 512 512" style="enable-background:new 0 0 512 512" xml:space="preserve" class=""><g>
<g xmlns="http://www.w3.org/2000/svg">
	<g>
		<path d="M488.868,149.489C503.427,133.107,512,112.174,512,90c0-49.629-40.371-90-90-90c-22.174,0-43.107,8.573-59.489,23.132    C328.326,7.507,292.445,0,257,0c-37.067,0-73.461,7.568-107.511,23.132C133.107,8.573,112.174,0,90,0C40.371,0,0,40.371,0,90    c0,22.174,8.573,43.107,23.132,59.489C7.517,183.651,0,219.526,0,255c0,37.106,7.442,73.175,23.132,107.511    C8.573,378.893,0,399.826,0,422c0,49.629,40.371,90,90,90c22.174,0,43.107-8.573,59.489-23.132    C180.123,502.87,215.701,512,255,512c35.751,0,70.848-8.858,81.843-13.718c8.084-2.752,17.969-5.894,25.668-9.413    C378.893,503.427,397.826,512,420,512c49.629,0,92-40.371,92-90c0-22.174-8.573-43.107-23.132-59.489    C504.431,328.455,512,292.513,512,255C512,219.486,504.449,183.587,488.868,149.489z M120.526,38.743    c-33.122,20.674-61.108,48.66-81.782,81.782C7,67.227,66.971,6.843,120.526,38.743z M38.743,391.474    c20.674,33.122,48.66,61.108,81.782,81.782C67.2,505.016,6.858,445.011,38.743,391.474z M123.06,285.178l-85.545,28.508    C32.78,295.54,30,274.611,30,255c0-19.611,2.78-38.54,7.515-56.686l85.545,28.508C121.117,235.924,120,245.327,120,255    C120,264.673,121.117,276.076,123.06,285.178z M257,30c19.611,0,38.54,2.78,56.686,7.515l-28.508,85.545    C276.076,121.117,266.673,120,257,120c-9.673,0-21.076,1.117-30.178,3.06l-28.508-85.545C216.46,32.78,237.389,30,257,30z     M257,482c-19.611,0-40.54-2.78-58.686-7.515l28.508-85.545c9.102,1.943,20.505,3.06,30.178,3.06    c9.673,0,19.076-1.117,28.178-3.06l28.508,85.545C295.54,479.22,276.611,482,257,482z M257,362c-57.891,0-107-49.109-107-107    s49.109-105,107-105s105,47.109,105,105S314.891,362,257,362z M388.94,226.822l85.545-28.508C479.22,216.46,482,235.389,482,255    c0,19.611-2.78,40.54-7.515,58.686l-85.545-28.508c1.943-9.102,3.06-20.505,3.06-30.178S390.883,235.924,388.94,226.822z     M391.474,473.257c33.122-20.674,61.108-48.66,81.782-81.782C505.137,444.996,444.809,505.021,391.474,473.257z M473.257,120.526    c-20.674-33.122-48.66-61.108-81.782-81.782C444.761,7.003,505.164,66.959,473.257,120.526z" fill="#ffffff" data-original="#000000" style="" class=""/>
	</g>
</g>
<g xmlns="http://www.w3.org/2000/svg">
</g>
<g xmlns="http://www.w3.org/2000/svg">
</g>
<g xmlns="http://www.w3.org/2000/svg">
</g>
<g xmlns="http://www.w3.org/2000/svg">
</g>
<g xmlns="http://www.w3.org/2000/svg">
</g>
<g xmlns="http://www.w3.org/2000/svg">
</g>
<g xmlns="http://www.w3.org/2000/svg">
</g>
<g xmlns="http://www.w3.org/2000/svg">
</g>
<g xmlns="http://www.w3.org/2000/svg">
</g>
<g xmlns="http://www.w3.org/2000/svg">
</g>
<g xmlns="http://www.w3.org/2000/svg">
</g>
<g xmlns="http://www.w3.org/2000/svg">
</g>
<g xmlns="http://www.w3.org/2000/svg">
</g>
<g xmlns="http://www.w3.org/2000/svg">
</g>
<g xmlns="http://www.w3.org/2000/svg">
</g>
</g></svg>
