<svg width="512" height="389.93" xmlns="http://www.w3.org/2000/svg" clip-rule="evenodd" fill-rule="evenodd" image-rendering="optimizeQuality" text-rendering="geometricPrecision" shape-rendering="geometricPrecision">

 <g>
  <title>Layer 1</title>
  <path id="svg_1" d="m256.02,0c107.67,0 194.96,87.29 194.96,194.97c0,107.67 -87.29,194.96 -194.96,194.96c-107.68,0 -194.97,-87.29 -194.97,-194.96c0,-107.68 87.29,-194.97 194.97,-194.97z" fill="#db18a3"/>
  <path id="svg_2" d="m246.24,88.71l0,-54.68c-10.48,9.24 -20.07,18.43 -28.79,27.58c-8.63,9.06 -16.42,18.09 -23.36,27.1l52.15,0zm149.01,212.84l-50.26,0c-17.23,24.83 -38.92,46.81 -61.85,66.4l1.98,-0.31c43.07,-7 83.74,-31.34 110.13,-66.09zm-166.29,66.38c-22.91,-19.57 -44.62,-41.57 -61.82,-66.38l-50.15,0c26.52,34.92 66.88,59.02 110.11,66.08l1.86,0.3zm-112.17,-279.22l53.24,0c8.01,-11.46 17.27,-22.96 27.79,-34.49c9.77,-10.71 20.64,-21.46 32.62,-32.24l-2.83,0.42c-43.25,6.73 -84.3,31.35 -110.82,66.31zm164.96,-66.58c22.23,19.94 43.18,42.01 60.23,66.58l53.16,0c-27.54,-36.22 -68.52,-59.84 -113.39,-66.58zm-15.98,11.9l0,54.68l52.15,0c-6.94,-9.01 -14.72,-18.04 -23.35,-27.1c-8.72,-9.15 -18.32,-18.34 -28.8,-27.58zm0,267.52l0,55.49c19.99,-16.6 38.98,-35 55.02,-55.49l-55.02,0zm-19.53,55.5l0,-55.5l-55.03,0c15.96,20.54 35.01,38.95 55.03,55.5z" fill-rule="nonzero" fill="#cccccc"/>
  <path id="svg_3" d="m40.22,90.41l431.56,0c22.09,0 40.22,18.13 40.22,40.22l0,129c0,22.03 -18.19,40.22 -40.22,40.22l-431.56,0c-22.13,0 -40.22,-18.09 -40.22,-40.22l0,-129c0,-22.15 18.07,-40.22 40.22,-40.22z" fill-rule="nonzero" fill="#db18a3"/>
  <path id="svg_4" d="m40.22,108.32l431.56,0c12.27,0 22.31,10.08 22.31,22.31l0,129c0,12.23 -10.08,22.31 -22.31,22.31l-431.56,0c-12.23,0 -22.31,-10.04 -22.31,-22.31l0,-129c0,-12.27 10.05,-22.31 22.31,-22.31z" fill="#ffffff"/>
  <path id="svg_5" d="m147.35,148.47l31.2,0l-14.62,93.31l-38.97,0l-6.87,-34.34l-1.79,0l-6.72,34.34l-38.96,0l-14.63,-93.31l31.2,0l7.01,52.11l0.9,0l10.75,-52.11l22.84,0l10.6,52.11l0.9,0l7.16,-52.11zm99.51,58.08l-29.86,0l0,12.93l36.58,0l0,22.3l-66.44,0l0,-93.31l65.69,0l-3.73,22.31l-32.1,0l0,14.12l29.86,0l0,21.65zm20.52,35.23l0,-93.31l48.38,0c8.95,0 15.35,1.75 19.18,5.23c3.83,3.48 5.75,8.56 5.75,15.23s-1.22,11.81 -3.66,15.45c-2.44,3.63 -5.7,5.99 -9.78,7.09l0,0.9c12.04,2.09 18.07,10.3 18.07,24.63c0,7.47 -1.99,13.46 -5.97,17.99c-3.99,4.53 -10.11,6.79 -18.37,6.79l-53.6,0zm41.51,-37.17l-13.23,0l0,15.23l13.08,0c4.18,0 6.27,-2.54 6.27,-7.62c0,-5.07 -2.05,-7.61 -6.12,-7.61zm-2.24,-35.68l-10.99,0l0,13.88l10.84,0c3.78,0 5.67,-2.31 5.67,-6.94c0,-4.63 -1.84,-6.94 -5.52,-6.94zm117.27,12.39l0,-11.29c-2.99,-0.5 -7.82,-0.74 -14.48,-0.74c-6.67,0 -14.98,1.04 -24.94,3.13l-3.88,-20.51c12.14,-3.79 23.89,-5.68 35.24,-5.68c9.75,0 16.82,0.6 21.2,1.79c4.38,1.2 7.61,2.64 9.7,4.33c4.58,3.89 6.87,9.76 6.87,17.62c0,9.95 -4.13,17.12 -12.39,21.5l0,0.75c9.85,4.08 14.78,11.49 14.78,22.24c0,5.28 -0.82,9.78 -2.46,13.51c-1.65,3.73 -3.71,6.62 -6.2,8.66s-5.77,3.66 -9.86,4.85c-6.07,1.7 -14.6,2.54 -25.6,2.54c-11,0 -22.02,-1.29 -33.07,-3.88l4.18,-23.05c9.46,2.29 17.47,3.44 24.04,3.44s12.19,-0.3 16.87,-0.9l0,-11.14l-25.68,-2.54l0,-21.65l25.68,-2.98z" fill-rule="nonzero" fill="#1F3647"/>
 </g>
</svg>