<svg width="72" height="72" viewBox="0 0 72 72" fill="none" xmlns="http://www.w3.org/2000/svg">
<rect width="72" height="72" rx="16" fill="#ECEBFF"/>
<path d="M57.1639 46.6464L57.1732 46.6413H57.1551L46.5288 40.8833L35.8849 35.1152L25.2405 40.8833L14.6143 46.6413H14.5962L14.6054 46.6464L14.5962 46.6515H14.6143L25.2405 52.4094L35.8849 58.1775L46.5288 52.4094L57.1551 46.6515H57.1732L57.1639 46.6464Z" fill="#DCD8FF"/>
<path d="M57.1639 24.5312L57.1732 24.5265H57.1551L46.5288 18.7681L35.8849 13L25.2405 18.7681L14.6143 24.5265H14.5962L14.6054 24.5312L14.5962 24.5362H14.6143L25.2405 30.2946L35.8849 36.0627L46.5288 30.2946L57.1551 24.5362H57.1732L57.1639 24.5312Z" fill="#4A3AFF"/>
<path d="M14.6143 24.0625V47.1151L35.8849 35.589L14.6143 24.0625Z" fill="#B8B1FF"/>
<path d="M57.155 24.0625V47.1151L35.8848 35.589L57.155 24.0625Z" fill="#B8B1FF"/>
</svg>
